<svg xmlns="http://www.w3.org/2000/svg" viewBox="0 0 200 20" preserveAspectRatio="none">
  <path d="M2,11 C4,14 7,7 10,11 C13,15 16,6 20,12 C24,18 28,5 32,11 C36,17 40,4 45,12 C50,20 55,6 60,11 C65,16 70,3 75,12 C80,21 85,5 90,11 C95,17 100,4 105,12 C110,20 115,6 120,11 C125,16 130,3 135,12 C140,21 145,5 150,11 C155,17 160,4 165,12 C170,20 175,6 180,11 C185,16 190,3 195,12 S198,15 200,11" stroke="black" stroke-width="4" fill="none" stroke-linecap="round" stroke-linejoin="round" vector-effect="non-scaling-stroke"/>
</svg>